0
SECTION
2
HEADER
9
$INSUNITS
70
4
0
ENDSEC
0
SECTION
2
TABLES
0
TABLE
2
LTYPE
0
LTYPE
72
65
70
64
2
CONTINUOUS
3
______
73
0
40
0
0
ENDTAB
0
TABLE
2
LAYER
0
ENDTAB
0
ENDSEC
0
SECTION
2
ENTITIES
0
LINE
8
0
10
91.2964685
20
-97.776505
11
84.809869
21
-44.9473917
0
ARC
8
0
10
94.7353306
20
-43.7286984
40
10
50
124.0649879
51
186.9999972
0
LINE
8
0
10
89.1340019
20
-35.4446706
11
124.4615691
21
-11.5575815
0
ARC
8
0
10
130.0628979
20
-19.8416094
40
10
50
90
51
124.0649879
0
LINE
8
0
10
130.0628979
20
-9.8416094
11
166.2296409
21
-9.8416094
0
ARC
8
0
10
166.2296409
20
-19.8416094
40
10
50
72.7184994
51
90
0
LINE
8
0
10
169.2003065
20
-10.2930416
11
196.2492744
21
-18.7082761
0
LINE
8
0
10
196.2492744
20
-18.7082761
11
217.1774943
21
-18.7082761
0
ARC
8
0
10
217.1774943
20
-28.7082761
40
10
50
0
51
90
0
LINE
8
0
10
227.1774943
20
-28.7082761
11
227.1774943
21
-73.5664215
0
LINE
8
0
10
227.1774943
20
-73.5664215
11
241.5411116
21
-82.2106947
0
ARC
8
0
10
236.3847096
20
-90.7787469
40
10
50
329.9999999
51
418.9498192
0
LINE
8
0
10
245.0449636
20
-95.7787469
11
226.8679295
21
-127.2622936
0
ARC
8
0
10
218.2076754
20
-122.2622936
40
10
50
240.1735235
51
329.9999999
0
LINE
8
0
10
213.2339266
20
-130.9376509
11
183.9881634
21
-114.1704943
0
LINE
8
0
10
183.9881634
20
-114.1704943
11
100.3109962
21
-106.5162353
0
ARC
8
0
10
101.22193
20
-96.5578117
40
10
50
186.9999972
51
264.7734875
0
CIRCLE
8
0
10
114.2880343
20
-33.1186537
40
1.2
0
CIRCLE
8
0
10
218.3274943
20
-38.0082761
40
1.2
0
CIRCLE
8
0
10
226.5574114
20
-91.1001267
40
1.2
0
CIRCLE
8
0
10
128.8374943
20
-91.8416095
40
1.2
0
CIRCLE
8
0
10
157.3374943
20
-57.0082761
40
1.2
0
CIRCLE
8
0
10
88.4883412
20
-41.2635562
40
1.2
0
CIRCLE
8
0
10
96.9335368
20
-102.2489214
40
1.2
0
CIRCLE
8
0
10
147.8374943
20
-107.7382761
40
1.2
0
CIRCLE
8
0
10
147.8374943
20
-13.3082761
40
1.2
0
CIRCLE
8
0
10
193.4374943
20
-21.2882761
40
1.2
0
CIRCLE
8
0
10
184.8874943
20
-111.3546094
40
1.2
0
CIRCLE
8
0
10
220.0255493
20
-129.0136438
40
1.2
0
CIRCLE
8
0
10
242.8255493
20
-89.5228854
40
1.2
0
CIRCLE
8
0
10
224.7206252
20
-74.9015337
40
1.2
0
ENDSEC
0
EOF