0
SECTION
2
HEADER
9
$INSUNITS
70
4
0
ENDSEC
0
SECTION
2
TABLES
0
TABLE
2
LTYPE
0
LTYPE
72
65
70
64
2
CONTINUOUS
3
______
73
0
40
0
0
ENDTAB
0
TABLE
2
LAYER
0
ENDTAB
0
ENDSEC
0
SECTION
2
ENTITIES
0
LINE
8
0
10
97.4700774
20
-98.8234601
11
90.6159728
21
-43.0012576
0
LINE
8
0
10
91.4807993
20
-41.1007134
11
128.3599735
21
-16.1644898
0
LINE
8
0
10
129.4136097
20
-15.8224056
11
147.7708647
21
-15.2104971
0
LINE
8
0
10
147.9041239
20
-15.2104971
11
166.63651
21
-15.8349099
0
LINE
8
0
10
167.0331214
20
-15.8881873
11
218.5004717
21
-28.1423183
0
LINE
8
0
10
220.0372307
20
-30.0882646
11
220.028549
21
-82.1208588
0
LINE
8
0
10
221.028549
20
-83.8532434
11
237.2189606
21
-93.2007819
0
LINE
8
0
10
237.9510114
20
-95.9328327
11
223.4617812
21
-121.0289157
0
LINE
8
0
10
221.489074
20
-122.014384
11
176.4204921
21
-116.5516695
0
LINE
8
0
10
176.2556253
20
-116.5246574
11
99.0496465
21
-100.5381777
0
ARC
8
0
10
92.6010651
20
-42.757519
40
2
50
124.0649879
51
186.9999972
0
ARC
8
0
10
129.4802393
20
-17.8212954
40
2
50
91.9091507
51
124.0649879
0
ARC
8
0
10
147.8374943
20
-17.2093869
40
2
50
88.0908493
51
91.9091507
0
ARC
8
0
10
166.5698804
20
-17.8337997
40
2
50
76.6075036
51
88.0908493
0
ARC
8
0
10
218.0372307
20
-30.0879308
40
2
50
359.9904373
51
76.6075036
0
ARC
8
0
10
222.028549
20
-82.1211926
40
2
50
179.9904373
51
239.9999999
0
ARC
8
0
10
236.2189606
20
-94.9328327
40
2
50
329.9999999
51
59.9999999
0
ARC
8
0
10
221.7297304
20
-120.0289157
40
2
50
263.0889559
51
329.9999999
0
ARC
8
0
10
176.6611485
20
-114.5662012
40
2
50
258.3015031
51
263.0889559
0
ARC
8
0
10
99.4551697
20
-98.5797215
40
2
50
186.9999972
51
258.3015031
0
LINE
8
0
10
101.4026967
20
-97.6197628
11
119.7648005
21
-95.36518
0
LINE
8
0
10
119.7648005
20
-95.36518
11
117.5102177
21
-77.0030762
0
LINE
8
0
10
117.5102177
20
-77.0030762
11
99.1481139
21
-79.257659
0
LINE
8
0
10
99.1481139
20
-79.257659
11
101.4026967
21
-97.6197628
0
LINE
8
0
10
99.0871792
20
-78.7613859
11
117.449283
21
-76.5068031
0
LINE
8
0
10
117.449283
20
-76.5068031
11
115.1947002
21
-58.1446993
0
LINE
8
0
10
115.1947002
20
-58.1446993
11
96.8325964
21
-60.3992821
0
LINE
8
0
10
96.8325964
20
-60.3992821
11
99.0871792
21
-78.7613859
0
LINE
8
0
10
96.7716617
20
-59.903009
11
115.1337655
21
-57.6484262
0
LINE
8
0
10
115.1337655
20
-57.6484262
11
112.8791827
21
-39.2863224
0
LINE
8
0
10
112.8791827
20
-39.2863224
11
94.5170789
21
-41.5409052
0
LINE
8
0
10
94.5170789
20
-41.5409052
11
96.7716617
21
-59.903009
0
LINE
8
0
10
119.5874943
20
-82.0916095
11
138.0874943
21
-82.0916095
0
LINE
8
0
10
138.0874943
20
-82.0916095
11
138.0874943
21
-63.5916095
0
LINE
8
0
10
138.0874943
20
-63.5916095
11
119.5874943
21
-63.5916095
0
LINE
8
0
10
119.5874943
20
-63.5916095
11
119.5874943
21
-82.0916095
0
LINE
8
0
10
119.5874942
20
-63.0916095
11
138.0874942
21
-63.0916095
0
LINE
8
0
10
138.0874942
20
-63.0916095
11
138.0874942
21
-44.5916095
0
LINE
8
0
10
138.0874942
20
-44.5916095
11
119.5874942
21
-44.5916095
0
LINE
8
0
10
119.5874942
20
-44.5916095
11
119.5874942
21
-63.0916095
0
LINE
8
0
10
119.5874942
20
-44.0916094
11
138.0874942
21
-44.0916094
0
LINE
8
0
10
138.0874942
20
-44.0916094
11
138.0874942
21
-25.5916094
0
LINE
8
0
10
138.0874942
20
-25.5916094
11
119.5874942
21
-25.5916094
0
LINE
8
0
10
119.5874942
20
-25.5916094
11
119.5874942
21
-44.0916094
0
LINE
8
0
10
138.5874943
20
-75.7582761
11
157.0874943
21
-75.7582761
0
LINE
8
0
10
157.0874943
20
-75.7582761
11
157.0874943
21
-57.2582761
0
LINE
8
0
10
157.0874943
20
-57.2582761
11
138.5874943
21
-57.2582761
0
LINE
8
0
10
138.5874943
20
-57.2582761
11
138.5874943
21
-75.7582761
0
LINE
8
0
10
138.5874943
20
-56.7582761
11
157.0874943
21
-56.7582761
0
LINE
8
0
10
157.0874943
20
-56.7582761
11
157.0874943
21
-38.2582761
0
LINE
8
0
10
157.0874943
20
-38.2582761
11
138.5874943
21
-38.2582761
0
LINE
8
0
10
138.5874943
20
-38.2582761
11
138.5874943
21
-56.7582761
0
LINE
8
0
10
138.5874943
20
-37.7582761
11
157.0874943
21
-37.7582761
0
LINE
8
0
10
157.0874943
20
-37.7582761
11
157.0874943
21
-19.2582761
0
LINE
8
0
10
157.0874943
20
-19.2582761
11
138.5874943
21
-19.2582761
0
LINE
8
0
10
138.5874943
20
-19.2582761
11
138.5874943
21
-37.7582761
0
LINE
8
0
10
157.5874943
20
-82.0916094
11
176.0874943
21
-82.0916094
0
LINE
8
0
10
176.0874943
20
-82.0916094
11
176.0874943
21
-63.5916094
0
LINE
8
0
10
176.0874943
20
-63.5916094
11
157.5874943
21
-63.5916094
0
LINE
8
0
10
157.5874943
20
-63.5916094
11
157.5874943
21
-82.0916094
0
LINE
8
0
10
157.5874943
20
-63.0916094
11
176.0874943
21
-63.0916094
0
LINE
8
0
10
176.0874943
20
-63.0916094
11
176.0874943
21
-44.5916094
0
LINE
8
0
10
176.0874943
20
-44.5916094
11
157.5874943
21
-44.5916094
0
LINE
8
0
10
157.5874943
20
-44.5916094
11
157.5874943
21
-63.0916094
0
LINE
8
0
10
157.5874942
20
-44.0916094
11
176.0874942
21
-44.0916094
0
LINE
8
0
10
176.0874942
20
-44.0916094
11
176.0874942
21
-25.5916094
0
LINE
8
0
10
176.0874942
20
-25.5916094
11
157.5874942
21
-25.5916094
0
LINE
8
0
10
157.5874942
20
-25.5916094
11
157.5874942
21
-44.0916094
0
LINE
8
0
10
176.5874943
20
-85.2582762
11
195.0874943
21
-85.2582762
0
LINE
8
0
10
195.0874943
20
-85.2582762
11
195.0874943
21
-66.7582762
0
LINE
8
0
10
195.0874943
20
-66.7582762
11
176.5874943
21
-66.7582762
0
LINE
8
0
10
176.5874943
20
-66.7582762
11
176.5874943
21
-85.2582762
0
LINE
8
0
10
176.5874943
20
-66.2582761
11
195.0874943
21
-66.2582761
0
LINE
8
0
10
195.0874943
20
-66.2582761
11
195.0874943
21
-47.7582761
0
LINE
8
0
10
195.0874943
20
-47.7582761
11
176.5874943
21
-47.7582761
0
LINE
8
0
10
176.5874943
20
-47.7582761
11
176.5874943
21
-66.2582761
0
LINE
8
0
10
176.5874943
20
-47.2582761
11
195.0874943
21
-47.2582761
0
LINE
8
0
10
195.0874943
20
-47.2582761
11
195.0874943
21
-28.7582761
0
LINE
8
0
10
195.0874943
20
-28.7582761
11
176.5874943
21
-28.7582761
0
LINE
8
0
10
176.5874943
20
-28.7582761
11
176.5874943
21
-47.2582761
0
LINE
8
0
10
167.0874943
20
-106.7916094
11
185.5874943
21
-106.7916094
0
LINE
8
0
10
185.5874943
20
-106.7916094
11
185.5874943
21
-88.2916094
0
LINE
8
0
10
185.5874943
20
-88.2916094
11
167.0874943
21
-88.2916094
0
LINE
8
0
10
167.0874943
20
-88.2916094
11
167.0874943
21
-106.7916094
0
LINE
8
0
10
204.8641259
20
-107.1409996
11
214.1141259
21
-91.1195296
0
LINE
8
0
10
214.1141259
20
-91.1195296
11
198.0926559
21
-81.8695296
0
LINE
8
0
10
198.0926559
20
-81.8695296
11
188.8426559
21
-97.8909996
0
LINE
8
0
10
188.8426559
20
-97.8909996
11
204.8641259
21
-107.1409996
0
LINE
8
0
10
221.3186085
20
-116.6409996
11
230.5686085
21
-100.6195296
0
LINE
8
0
10
230.5686085
20
-100.6195296
11
214.5471385
21
-91.3695296
0
LINE
8
0
10
214.5471385
20
-91.3695296
11
205.2971385
21
-107.3909996
0
LINE
8
0
10
205.2971385
20
-107.3909996
11
221.3186085
21
-116.6409996
0
ENDSEC
0
EOF