0
SECTION
2
HEADER
9
$INSUNITS
70
4
0
ENDSEC
0
SECTION
2
TABLES
0
TABLE
2
LTYPE
0
LTYPE
72
65
70
64
2
CONTINUOUS
3
______
73
0
40
0
0
ENDTAB
0
TABLE
2
LAYER
0
ENDTAB
0
ENDSEC
0
SECTION
2
ENTITIES
0
LINE
8
0
10
97.4505155
20
-98.6641412
11
90.6159728
21
-43.0012576
0
LINE
8
0
10
91.4807993
20
-41.1007134
11
128.3299303
21
-16.1848038
0
LINE
8
0
10
129.450196
20
-15.8416094
11
166.602681
21
-15.8416094
0
LINE
8
0
10
167.065922
20
-15.895997
11
218.5004589
21
-28.1423153
0
LINE
8
0
10
220.0372179
20
-30.0882775
11
220.0285583
21
-79.5938482
0
LINE
8
0
10
221.0285583
20
-81.3262488
11
237.2189606
21
-90.6737819
0
LINE
8
0
10
237.9510114
20
-93.4058327
11
220.7969128
21
-123.1176031
0
LINE
8
0
10
218.3658908
20
-123.9914866
11
176.5775864
21
-108.4041654
0
LINE
8
0
10
176.0825796
20
-108.2884764
11
99.2316434
21
-100.4099751
0
ARC
8
0
10
92.6010651
20
-42.757519
40
2
50
124.0649879
51
186.9999972
0
ARC
8
0
10
129.450196
20
-17.8416094
40
2
50
90
51
124.0649879
0
ARC
8
0
10
166.602681
20
-17.8416094
40
2
50
76.6075036
51
90
0
ARC
8
0
10
218.0372179
20
-30.0879277
40
2
50
359.989979
51
76.6075036
0
ARC
8
0
10
222.0285583
20
-79.594198
40
2
50
179.989979
51
239.9999999
0
ARC
8
0
10
236.2189606
20
-92.4058327
40
2
50
329.9999999
51
59.9999999
0
ARC
8
0
10
219.064862
20
-122.1176031
40
2
50
249.5441439
51
329.9999999
0
ARC
8
0
10
175.8786152
20
-110.2780489
40
2
50
69.5441439
51
84.146674
0
ARC
8
0
10
99.4356078
20
-98.4204026
40
2
50
186.9999972
51
264.146674
0
LINE
8
0
10
101.4026967
20
-97.6197628
11
119.7648005
21
-95.36518
0
LINE
8
0
10
119.7648005
20
-95.36518
11
117.5102177
21
-77.0030762
0
LINE
8
0
10
117.5102177
20
-77.0030762
11
99.1481139
21
-79.257659
0
LINE
8
0
10
99.1481139
20
-79.257659
11
101.4026967
21
-97.6197628
0
LINE
8
0
10
99.0871792
20
-78.7613859
11
117.449283
21
-76.5068031
0
LINE
8
0
10
117.449283
20
-76.5068031
11
115.1947002
21
-58.1446993
0
LINE
8
0
10
115.1947002
20
-58.1446993
11
96.8325964
21
-60.3992821
0
LINE
8
0
10
96.8325964
20
-60.3992821
11
99.0871792
21
-78.7613859
0
LINE
8
0
10
96.7716617
20
-59.903009
11
115.1337655
21
-57.6484262
0
LINE
8
0
10
115.1337655
20
-57.6484262
11
112.8791827
21
-39.2863224
0
LINE
8
0
10
112.8791827
20
-39.2863224
11
94.5170789
21
-41.5409052
0
LINE
8
0
10
94.5170789
20
-41.5409052
11
96.7716617
21
-59.903009
0
LINE
8
0
10
119.5874943
20
-82.0916095
11
138.0874943
21
-82.0916095
0
LINE
8
0
10
138.0874943
20
-82.0916095
11
138.0874943
21
-63.5916095
0
LINE
8
0
10
138.0874943
20
-63.5916095
11
119.5874943
21
-63.5916095
0
LINE
8
0
10
119.5874943
20
-63.5916095
11
119.5874943
21
-82.0916095
0
LINE
8
0
10
119.5874942
20
-63.0916095
11
138.0874942
21
-63.0916095
0
LINE
8
0
10
138.0874942
20
-63.0916095
11
138.0874942
21
-44.5916095
0
LINE
8
0
10
138.0874942
20
-44.5916095
11
119.5874942
21
-44.5916095
0
LINE
8
0
10
119.5874942
20
-44.5916095
11
119.5874942
21
-63.0916095
0
LINE
8
0
10
119.5874942
20
-44.0916094
11
138.0874942
21
-44.0916094
0
LINE
8
0
10
138.0874942
20
-44.0916094
11
138.0874942
21
-25.5916094
0
LINE
8
0
10
138.0874942
20
-25.5916094
11
119.5874942
21
-25.5916094
0
LINE
8
0
10
119.5874942
20
-25.5916094
11
119.5874942
21
-44.0916094
0
LINE
8
0
10
138.5874943
20
-75.7582761
11
157.0874943
21
-75.7582761
0
LINE
8
0
10
157.0874943
20
-75.7582761
11
157.0874943
21
-57.2582761
0
LINE
8
0
10
157.0874943
20
-57.2582761
11
138.5874943
21
-57.2582761
0
LINE
8
0
10
138.5874943
20
-57.2582761
11
138.5874943
21
-75.7582761
0
LINE
8
0
10
138.5874943
20
-56.7582761
11
157.0874943
21
-56.7582761
0
LINE
8
0
10
157.0874943
20
-56.7582761
11
157.0874943
21
-38.2582761
0
LINE
8
0
10
157.0874943
20
-38.2582761
11
138.5874943
21
-38.2582761
0
LINE
8
0
10
138.5874943
20
-38.2582761
11
138.5874943
21
-56.7582761
0
LINE
8
0
10
138.5874943
20
-37.7582761
11
157.0874943
21
-37.7582761
0
LINE
8
0
10
157.0874943
20
-37.7582761
11
157.0874943
21
-19.2582761
0
LINE
8
0
10
157.0874943
20
-19.2582761
11
138.5874943
21
-19.2582761
0
LINE
8
0
10
138.5874943
20
-19.2582761
11
138.5874943
21
-37.7582761
0
LINE
8
0
10
157.5874943
20
-82.0916094
11
176.0874943
21
-82.0916094
0
LINE
8
0
10
176.0874943
20
-82.0916094
11
176.0874943
21
-63.5916094
0
LINE
8
0
10
176.0874943
20
-63.5916094
11
157.5874943
21
-63.5916094
0
LINE
8
0
10
157.5874943
20
-63.5916094
11
157.5874943
21
-82.0916094
0
LINE
8
0
10
157.5874943
20
-63.0916094
11
176.0874943
21
-63.0916094
0
LINE
8
0
10
176.0874943
20
-63.0916094
11
176.0874943
21
-44.5916094
0
LINE
8
0
10
176.0874943
20
-44.5916094
11
157.5874943
21
-44.5916094
0
LINE
8
0
10
157.5874943
20
-44.5916094
11
157.5874943
21
-63.0916094
0
LINE
8
0
10
157.5874942
20
-44.0916094
11
176.0874942
21
-44.0916094
0
LINE
8
0
10
176.0874942
20
-44.0916094
11
176.0874942
21
-25.5916094
0
LINE
8
0
10
176.0874942
20
-25.5916094
11
157.5874942
21
-25.5916094
0
LINE
8
0
10
157.5874942
20
-25.5916094
11
157.5874942
21
-44.0916094
0
LINE
8
0
10
176.5874943
20
-85.2582762
11
195.0874943
21
-85.2582762
0
LINE
8
0
10
195.0874943
20
-85.2582762
11
195.0874943
21
-66.7582762
0
LINE
8
0
10
195.0874943
20
-66.7582762
11
176.5874943
21
-66.7582762
0
LINE
8
0
10
176.5874943
20
-66.7582762
11
176.5874943
21
-85.2582762
0
LINE
8
0
10
176.5874943
20
-66.2582761
11
195.0874943
21
-66.2582761
0
LINE
8
0
10
195.0874943
20
-66.2582761
11
195.0874943
21
-47.7582761
0
LINE
8
0
10
195.0874943
20
-47.7582761
11
176.5874943
21
-47.7582761
0
LINE
8
0
10
176.5874943
20
-47.7582761
11
176.5874943
21
-66.2582761
0
LINE
8
0
10
176.5874943
20
-47.2582761
11
195.0874943
21
-47.2582761
0
LINE
8
0
10
195.0874943
20
-47.2582761
11
195.0874943
21
-28.7582761
0
LINE
8
0
10
195.0874943
20
-28.7582761
11
176.5874943
21
-28.7582761
0
LINE
8
0
10
176.5874943
20
-28.7582761
11
176.5874943
21
-47.2582761
0
LINE
8
0
10
167.0874943
20
-104.2646094
11
185.5874943
21
-104.2646094
0
LINE
8
0
10
185.5874943
20
-104.2646094
11
185.5874943
21
-85.7646094
0
LINE
8
0
10
185.5874943
20
-85.7646094
11
167.0874943
21
-85.7646094
0
LINE
8
0
10
167.0874943
20
-85.7646094
11
167.0874943
21
-104.2646094
0
LINE
8
0
10
199.0799249
20
-79.9125296
11
230.5686085
21
-98.0925296
0
LINE
8
0
10
199.0799249
20
-79.9125296
11
189.8299249
21
-95.9339996
0
LINE
8
0
10
189.8299249
20
-95.9339996
11
221.3186085
21
-114.1139996
0
LINE
8
0
10
221.3186085
20
-114.1139996
11
230.5686085
21
-98.0925296
0
ENDSEC
0
EOF