0
SECTION
2
HEADER
9
$INSUNITS
70
4
0
ENDSEC
0
SECTION
2
TABLES
0
TABLE
2
LTYPE
0
LTYPE
72
65
70
64
2
CONTINUOUS
3
______
73
0
40
0
0
ENDTAB
0
TABLE
2
LAYER
0
ENDTAB
0
ENDSEC
0
SECTION
2
ENTITIES
0
LINE
8
0
10
97.4505155
20
-98.6641412
11
90.6159728
21
-43.0012576
0
LINE
8
0
10
91.4807993
20
-41.1007134
11
128.3299303
21
-16.1848038
0
LINE
8
0
10
129.450196
20
-15.8416094
11
166.602681
21
-15.8416094
0
LINE
8
0
10
167.065922
20
-15.895997
11
218.5273766
21
-28.1487243
0
LINE
8
0
10
220.0638474
20
-30.0603837
11
220.9141325
21
-80.1392711
0
LINE
8
0
10
221.9138443
20
-81.8373689
11
238.1239571
21
-91.1962819
0
LINE
8
0
10
238.8560079
20
-93.9283327
11
221.7050379
21
-123.6346843
0
LINE
8
0
10
219.2671964
20
-124.5060099
11
176.5807229
21
-108.4063457
0
LINE
8
0
10
176.0788967
20
-108.2880988
11
99.2316434
21
-100.4099751
0
ARC
8
0
10
92.6010651
20
-42.757519
40
2
50
124.0649879
51
186.9999972
0
ARC
8
0
10
129.450196
20
-17.8416094
40
2
50
90
51
124.0649879
0
ARC
8
0
10
166.602681
20
-17.8416094
40
2
50
76.6075036
51
90
0
ARC
8
0
10
218.0641356
20
-30.0943367
40
2
50
0.9727285
51
76.6075036
0
ARC
8
0
10
222.9138443
20
-80.1053181
40
2
50
180.9727285
51
239.9999999
0
ARC
8
0
10
237.1239571
20
-92.9283327
40
2
50
329.9999999
51
59.9999999
0
ARC
8
0
10
219.9729871
20
-122.6346843
40
2
50
249.3354925
51
329.9999999
0
ARC
8
0
10
175.8749323
20
-110.2776713
40
2
50
69.3354925
51
84.146674
0
ARC
8
0
10
99.4356078
20
-98.4204026
40
2
50
186.9999972
51
264.146674
0
LINE
8
0
10
101.4026967
20
-97.6197628
11
119.7648005
21
-95.36518
0
LINE
8
0
10
119.7648005
20
-95.36518
11
117.5102177
21
-77.0030762
0
LINE
8
0
10
117.5102177
20
-77.0030762
11
99.1481139
21
-79.257659
0
LINE
8
0
10
99.1481139
20
-79.257659
11
101.4026967
21
-97.6197628
0
LINE
8
0
10
99.0871792
20
-78.7613859
11
117.449283
21
-76.5068031
0
LINE
8
0
10
117.449283
20
-76.5068031
11
115.1947002
21
-58.1446993
0
LINE
8
0
10
115.1947002
20
-58.1446993
11
96.8325964
21
-60.3992821
0
LINE
8
0
10
96.8325964
20
-60.3992821
11
99.0871792
21
-78.7613859
0
LINE
8
0
10
96.7716617
20
-59.903009
11
115.1337655
21
-57.6484262
0
LINE
8
0
10
115.1337655
20
-57.6484262
11
112.8791827
21
-39.2863224
0
LINE
8
0
10
112.8791827
20
-39.2863224
11
94.5170789
21
-41.5409052
0
LINE
8
0
10
94.5170789
20
-41.5409052
11
96.7716617
21
-59.903009
0
LINE
8
0
10
119.5874943
20
-82.0916095
11
138.0874943
21
-82.0916095
0
LINE
8
0
10
138.0874943
20
-82.0916095
11
138.0874943
21
-63.5916095
0
LINE
8
0
10
138.0874943
20
-63.5916095
11
119.5874943
21
-63.5916095
0
LINE
8
0
10
119.5874943
20
-63.5916095
11
119.5874943
21
-82.0916095
0
LINE
8
0
10
119.5874942
20
-63.0916095
11
138.0874942
21
-63.0916095
0
LINE
8
0
10
138.0874942
20
-63.0916095
11
138.0874942
21
-44.5916095
0
LINE
8
0
10
138.0874942
20
-44.5916095
11
119.5874942
21
-44.5916095
0
LINE
8
0
10
119.5874942
20
-44.5916095
11
119.5874942
21
-63.0916095
0
LINE
8
0
10
119.5874942
20
-44.0916094
11
138.0874942
21
-44.0916094
0
LINE
8
0
10
138.0874942
20
-44.0916094
11
138.0874942
21
-25.5916094
0
LINE
8
0
10
138.0874942
20
-25.5916094
11
119.5874942
21
-25.5916094
0
LINE
8
0
10
119.5874942
20
-25.5916094
11
119.5874942
21
-44.0916094
0
LINE
8
0
10
138.5874943
20
-75.7582761
11
157.0874943
21
-75.7582761
0
LINE
8
0
10
157.0874943
20
-75.7582761
11
157.0874943
21
-57.2582761
0
LINE
8
0
10
157.0874943
20
-57.2582761
11
138.5874943
21
-57.2582761
0
LINE
8
0
10
138.5874943
20
-57.2582761
11
138.5874943
21
-75.7582761
0
LINE
8
0
10
138.5874943
20
-56.7582761
11
157.0874943
21
-56.7582761
0
LINE
8
0
10
157.0874943
20
-56.7582761
11
157.0874943
21
-38.2582761
0
LINE
8
0
10
157.0874943
20
-38.2582761
11
138.5874943
21
-38.2582761
0
LINE
8
0
10
138.5874943
20
-38.2582761
11
138.5874943
21
-56.7582761
0
LINE
8
0
10
138.5874943
20
-37.7582761
11
157.0874943
21
-37.7582761
0
LINE
8
0
10
157.0874943
20
-37.7582761
11
157.0874943
21
-19.2582761
0
LINE
8
0
10
157.0874943
20
-19.2582761
11
138.5874943
21
-19.2582761
0
LINE
8
0
10
138.5874943
20
-19.2582761
11
138.5874943
21
-37.7582761
0
LINE
8
0
10
157.5874943
20
-82.0916094
11
176.0874943
21
-82.0916094
0
LINE
8
0
10
176.0874943
20
-82.0916094
11
176.0874943
21
-63.5916094
0
LINE
8
0
10
176.0874943
20
-63.5916094
11
157.5874943
21
-63.5916094
0
LINE
8
0
10
157.5874943
20
-63.5916094
11
157.5874943
21
-82.0916094
0
LINE
8
0
10
157.5874943
20
-63.0916094
11
176.0874943
21
-63.0916094
0
LINE
8
0
10
176.0874943
20
-63.0916094
11
176.0874943
21
-44.5916094
0
LINE
8
0
10
176.0874943
20
-44.5916094
11
157.5874943
21
-44.5916094
0
LINE
8
0
10
157.5874943
20
-44.5916094
11
157.5874943
21
-63.0916094
0
LINE
8
0
10
157.5874942
20
-44.0916094
11
176.0874942
21
-44.0916094
0
LINE
8
0
10
176.0874942
20
-44.0916094
11
176.0874942
21
-25.5916094
0
LINE
8
0
10
176.0874942
20
-25.5916094
11
157.5874942
21
-25.5916094
0
LINE
8
0
10
157.5874942
20
-25.5916094
11
157.5874942
21
-44.0916094
0
LINE
8
0
10
176.5874943
20
-85.2582762
11
195.0874943
21
-85.2582762
0
LINE
8
0
10
195.0874943
20
-85.2582762
11
195.0874943
21
-66.7582762
0
LINE
8
0
10
195.0874943
20
-66.7582762
11
176.5874943
21
-66.7582762
0
LINE
8
0
10
176.5874943
20
-66.7582762
11
176.5874943
21
-85.2582762
0
LINE
8
0
10
176.5874943
20
-66.2582761
11
195.0874943
21
-66.2582761
0
LINE
8
0
10
195.0874943
20
-66.2582761
11
195.0874943
21
-47.7582761
0
LINE
8
0
10
195.0874943
20
-47.7582761
11
176.5874943
21
-47.7582761
0
LINE
8
0
10
176.5874943
20
-47.7582761
11
176.5874943
21
-66.2582761
0
LINE
8
0
10
176.5874943
20
-47.2582761
11
195.0874943
21
-47.2582761
0
LINE
8
0
10
195.0874943
20
-47.2582761
11
195.0874943
21
-28.7582761
0
LINE
8
0
10
195.0874943
20
-28.7582761
11
176.5874943
21
-28.7582761
0
LINE
8
0
10
176.5874943
20
-28.7582761
11
176.5874943
21
-47.2582761
0
LINE
8
0
10
167.0874943
20
-104.2646094
11
185.5874943
21
-104.2646094
0
LINE
8
0
10
185.5874943
20
-104.2646094
11
185.5874943
21
-85.7646094
0
LINE
8
0
10
185.5874943
20
-85.7646094
11
167.0874943
21
-85.7646094
0
LINE
8
0
10
167.0874943
20
-85.7646094
11
167.0874943
21
-104.2646094
0
LINE
8
0
10
205.8513949
20
-105.1839996
11
215.1013949
21
-89.1625296
0
LINE
8
0
10
215.1013949
20
-89.1625296
11
199.0799249
21
-79.9125296
0
LINE
8
0
10
199.0799249
20
-79.9125296
11
189.8299249
21
-95.9339996
0
LINE
8
0
10
189.8299249
20
-95.9339996
11
205.8513949
21
-105.1839996
0
LINE
8
0
10
222.223605
20
-114.6364996
11
231.473605
21
-98.6150296
0
LINE
8
0
10
231.473605
20
-98.6150296
11
215.452135
21
-89.3650296
0
LINE
8
0
10
215.452135
20
-89.3650296
11
206.202135
21
-105.3864996
0
LINE
8
0
10
206.202135
20
-105.3864996
11
222.223605
21
-114.6364996
0
ENDSEC
0
EOF