0
SECTION
2
HEADER
9
$INSUNITS
70
4
0
ENDSEC
0
SECTION
2
TABLES
0
TABLE
2
LTYPE
0
LTYPE
72
65
70
64
2
CONTINUOUS
3
______
73
0
40
0
0
ENDTAB
0
TABLE
2
LAYER
0
ENDTAB
0
ENDSEC
0
SECTION
2
ENTITIES
0
LINE
8
0
10
101.4026967
20
-97.6197628
11
119.7648005
21
-95.36518
0
LINE
8
0
10
119.7648005
20
-95.36518
11
117.5102177
21
-77.0030762
0
LINE
8
0
10
117.5102177
20
-77.0030762
11
99.1481139
21
-79.257659
0
LINE
8
0
10
99.1481139
20
-79.257659
11
101.4026967
21
-97.6197628
0
LINE
8
0
10
99.0871792
20
-78.7613859
11
117.449283
21
-76.5068031
0
LINE
8
0
10
117.449283
20
-76.5068031
11
115.1947002
21
-58.1446993
0
LINE
8
0
10
115.1947002
20
-58.1446993
11
96.8325964
21
-60.3992821
0
LINE
8
0
10
96.8325964
20
-60.3992821
11
99.0871792
21
-78.7613859
0
LINE
8
0
10
96.7716617
20
-59.903009
11
115.1337655
21
-57.6484262
0
LINE
8
0
10
115.1337655
20
-57.6484262
11
112.8791827
21
-39.2863224
0
LINE
8
0
10
112.8791827
20
-39.2863224
11
94.5170789
21
-41.5409052
0
LINE
8
0
10
94.5170789
20
-41.5409052
11
96.7716617
21
-59.903009
0
LINE
8
0
10
119.5874943
20
-82.0916095
11
138.0874943
21
-82.0916095
0
LINE
8
0
10
138.0874943
20
-82.0916095
11
138.0874943
21
-63.5916095
0
LINE
8
0
10
138.0874943
20
-63.5916095
11
119.5874943
21
-63.5916095
0
LINE
8
0
10
119.5874943
20
-63.5916095
11
119.5874943
21
-82.0916095
0
LINE
8
0
10
119.5874942
20
-63.0916095
11
138.0874942
21
-63.0916095
0
LINE
8
0
10
138.0874942
20
-63.0916095
11
138.0874942
21
-44.5916095
0
LINE
8
0
10
138.0874942
20
-44.5916095
11
119.5874942
21
-44.5916095
0
LINE
8
0
10
119.5874942
20
-44.5916095
11
119.5874942
21
-63.0916095
0
LINE
8
0
10
119.5874942
20
-44.0916094
11
138.0874942
21
-44.0916094
0
LINE
8
0
10
138.0874942
20
-44.0916094
11
138.0874942
21
-25.5916094
0
LINE
8
0
10
138.0874942
20
-25.5916094
11
119.5874942
21
-25.5916094
0
LINE
8
0
10
119.5874942
20
-25.5916094
11
119.5874942
21
-44.0916094
0
LINE
8
0
10
138.5874943
20
-75.7582761
11
157.0874943
21
-75.7582761
0
LINE
8
0
10
157.0874943
20
-75.7582761
11
157.0874943
21
-57.2582761
0
LINE
8
0
10
157.0874943
20
-57.2582761
11
138.5874943
21
-57.2582761
0
LINE
8
0
10
138.5874943
20
-57.2582761
11
138.5874943
21
-75.7582761
0
LINE
8
0
10
138.5874943
20
-56.7582761
11
157.0874943
21
-56.7582761
0
LINE
8
0
10
157.0874943
20
-56.7582761
11
157.0874943
21
-38.2582761
0
LINE
8
0
10
157.0874943
20
-38.2582761
11
138.5874943
21
-38.2582761
0
LINE
8
0
10
138.5874943
20
-38.2582761
11
138.5874943
21
-56.7582761
0
LINE
8
0
10
138.5874943
20
-37.7582761
11
157.0874943
21
-37.7582761
0
LINE
8
0
10
157.0874943
20
-37.7582761
11
157.0874943
21
-19.2582761
0
LINE
8
0
10
157.0874943
20
-19.2582761
11
138.5874943
21
-19.2582761
0
LINE
8
0
10
138.5874943
20
-19.2582761
11
138.5874943
21
-37.7582761
0
LINE
8
0
10
157.5874943
20
-82.0916094
11
176.0874943
21
-82.0916094
0
LINE
8
0
10
176.0874943
20
-82.0916094
11
176.0874943
21
-63.5916094
0
LINE
8
0
10
176.0874943
20
-63.5916094
11
157.5874943
21
-63.5916094
0
LINE
8
0
10
157.5874943
20
-63.5916094
11
157.5874943
21
-82.0916094
0
LINE
8
0
10
157.5874943
20
-63.0916094
11
176.0874943
21
-63.0916094
0
LINE
8
0
10
176.0874943
20
-63.0916094
11
176.0874943
21
-44.5916094
0
LINE
8
0
10
176.0874943
20
-44.5916094
11
157.5874943
21
-44.5916094
0
LINE
8
0
10
157.5874943
20
-44.5916094
11
157.5874943
21
-63.0916094
0
LINE
8
0
10
157.5874942
20
-44.0916094
11
176.0874942
21
-44.0916094
0
LINE
8
0
10
176.0874942
20
-44.0916094
11
176.0874942
21
-25.5916094
0
LINE
8
0
10
176.0874942
20
-25.5916094
11
157.5874942
21
-25.5916094
0
LINE
8
0
10
157.5874942
20
-25.5916094
11
157.5874942
21
-44.0916094
0
LINE
8
0
10
176.5874943
20
-85.2582762
11
195.0874943
21
-85.2582762
0
LINE
8
0
10
195.0874943
20
-85.2582762
11
195.0874943
21
-66.7582762
0
LINE
8
0
10
195.0874943
20
-66.7582762
11
176.5874943
21
-66.7582762
0
LINE
8
0
10
176.5874943
20
-66.7582762
11
176.5874943
21
-85.2582762
0
LINE
8
0
10
176.5874943
20
-66.2582761
11
195.0874943
21
-66.2582761
0
LINE
8
0
10
195.0874943
20
-66.2582761
11
195.0874943
21
-47.7582761
0
LINE
8
0
10
195.0874943
20
-47.7582761
11
176.5874943
21
-47.7582761
0
LINE
8
0
10
176.5874943
20
-47.7582761
11
176.5874943
21
-66.2582761
0
LINE
8
0
10
176.5874943
20
-47.2582761
11
195.0874943
21
-47.2582761
0
LINE
8
0
10
195.0874943
20
-47.2582761
11
195.0874943
21
-28.7582761
0
LINE
8
0
10
195.0874943
20
-28.7582761
11
176.5874943
21
-28.7582761
0
LINE
8
0
10
176.5874943
20
-28.7582761
11
176.5874943
21
-47.2582761
0
LINE
8
0
10
167.0874943
20
-104.2646094
11
185.5874943
21
-104.2646094
0
LINE
8
0
10
185.5874943
20
-104.2646094
11
185.5874943
21
-85.7646094
0
LINE
8
0
10
185.5874943
20
-85.7646094
11
167.0874943
21
-85.7646094
0
LINE
8
0
10
167.0874943
20
-85.7646094
11
167.0874943
21
-104.2646094
0
LINE
8
0
10
206.5095741
20
-105.5639996
11
215.7595741
21
-89.5425296
0
LINE
8
0
10
215.7595741
20
-89.5425296
11
199.7381041
21
-80.2925296
0
LINE
8
0
10
199.7381041
20
-80.2925296
11
190.4881041
21
-96.3139996
0
LINE
8
0
10
190.4881041
20
-96.3139996
11
206.5095741
21
-105.5639996
0
LINE
8
0
10
222.9640568
20
-115.0639997
11
232.2140568
21
-99.0425297
0
LINE
8
0
10
232.2140568
20
-99.0425297
11
216.1925868
21
-89.7925297
0
LINE
8
0
10
216.1925868
20
-89.7925297
11
206.9425868
21
-105.8139997
0
LINE
8
0
10
206.9425868
20
-105.8139997
11
222.9640568
21
-115.0639997
0
ENDSEC
0
EOF