0
SECTION
2
HEADER
9
$INSUNITS
70
4
0
ENDSEC
0
SECTION
2
TABLES
0
TABLE
2
LTYPE
0
LTYPE
72
65
70
64
2
CONTINUOUS
3
______
73
0
40
0
0
ENDTAB
0
TABLE
2
LAYER
0
ENDTAB
0
ENDSEC
0
SECTION
2
ENTITIES
0
LINE
8
0
10
97.2517454
20
-97.0452889
11
90.765146
21
-44.2161756
0
LINE
8
0
10
92.494799
20
-40.4150873
11
127.8223663
21
-16.5279983
0
LINE
8
0
10
130.0628979
20
-15.8416094
11
166.2296409
21
-15.8416094
0
LINE
8
0
10
167.4179072
20
-16.0221823
11
194.7570813
21
-24.5277032
0
LINE
8
0
10
195.9453476
20
-24.7082761
11
199.6374943
21
-24.7082761
0
LINE
8
0
10
221.1774943
20
-60.8782761
11
221.1774943
21
-74.6970397
0
LINE
8
0
10
223.1149335
20
-78.1242606
11
238.4472704
21
-87.351526
0
LINE
8
0
10
239.8488112
20
-92.7787469
11
221.671777
21
-124.2622936
0
LINE
8
0
10
216.2181758
20
-125.7324365
11
186.5941067
21
-108.7483898
0
LINE
8
0
10
184.9689807
20
-108.2351633
11
100.8575564
21
-100.5411811
0
ARC
8
0
10
94.7353306
20
-43.7286984
40
4
50
124.0649879
51
186.9999972
0
ARC
8
0
10
130.0628979
20
-19.8416094
40
4
50
90
51
124.0649879
0
ARC
8
0
10
166.2296409
20
-19.8416094
40
4
50
72.7184994
51
90
0
ARC
8
0
10
195.9453476
20
-20.7082761
40
4
50
252.7184994
51
270
0
ARC
8
0
10
225.1774943
20
-74.6970397
40
4
50
180
51
238.959743
0
ARC
8
0
10
236.3847096
20
-90.7787469
40
4
50
329.9999999
51
58.959743
0
ARC
8
0
10
218.2076754
20
-122.2622936
40
4
50
240.1735235
51
329.9999999
0
ARC
8
0
10
184.6046071
20
-112.2185327
40
4
50
60.1735235
51
84.7734875
0
ARC
8
0
10
101.22193
20
-96.5578117
40
4
50
186.9999972
51
264.7734875
0
LINE
8
0
10
103.3617195
20
-95.112328
11
117.2573657
21
-93.4061572
0
LINE
8
0
10
117.2573657
20
-93.4061572
11
115.5511949
21
-79.510511
0
LINE
8
0
10
115.5511949
20
-79.510511
11
101.6555487
21
-81.2166818
0
LINE
8
0
10
101.6555487
20
-81.2166818
11
103.3617195
21
-95.112328
0
LINE
8
0
10
101.046202
20
-76.2539511
11
114.9418482
21
-74.5477803
0
LINE
8
0
10
114.9418482
20
-74.5477803
11
113.2356774
21
-60.6521341
0
LINE
8
0
10
113.2356774
20
-60.6521341
11
99.3400312
21
-62.3583049
0
LINE
8
0
10
99.3400312
20
-62.3583049
11
101.046202
21
-76.2539511
0
LINE
8
0
10
98.7306845
20
-57.3955742
11
112.6263307
21
-55.6894034
0
LINE
8
0
10
112.6263307
20
-55.6894034
11
110.9201599
21
-41.7937572
0
LINE
8
0
10
110.9201599
20
-41.7937572
11
97.0245137
21
-43.499928
0
LINE
8
0
10
97.0245137
20
-43.499928
11
98.7306845
21
-57.3955742
0
LINE
8
0
10
121.8374943
20
-79.8416095
11
135.8374943
21
-79.8416095
0
LINE
8
0
10
135.8374943
20
-79.8416095
11
135.8374943
21
-65.8416095
0
LINE
8
0
10
135.8374943
20
-65.8416095
11
121.8374943
21
-65.8416095
0
LINE
8
0
10
121.8374943
20
-65.8416095
11
121.8374943
21
-79.8416095
0
LINE
8
0
10
121.8374942
20
-60.8416095
11
135.8374942
21
-60.8416095
0
LINE
8
0
10
135.8374942
20
-60.8416095
11
135.8374942
21
-46.8416095
0
LINE
8
0
10
135.8374942
20
-46.8416095
11
121.8374942
21
-46.8416095
0
LINE
8
0
10
121.8374942
20
-46.8416095
11
121.8374942
21
-60.8416095
0
LINE
8
0
10
121.8374942
20
-41.8416094
11
135.8374942
21
-41.8416094
0
LINE
8
0
10
135.8374942
20
-41.8416094
11
135.8374942
21
-27.8416094
0
LINE
8
0
10
135.8374942
20
-27.8416094
11
121.8374942
21
-27.8416094
0
LINE
8
0
10
121.8374942
20
-27.8416094
11
121.8374942
21
-41.8416094
0
LINE
8
0
10
140.8374943
20
-73.5082761
11
154.8374943
21
-73.5082761
0
LINE
8
0
10
154.8374943
20
-73.5082761
11
154.8374943
21
-59.5082761
0
LINE
8
0
10
154.8374943
20
-59.5082761
11
140.8374943
21
-59.5082761
0
LINE
8
0
10
140.8374943
20
-59.5082761
11
140.8374943
21
-73.5082761
0
LINE
8
0
10
140.8374943
20
-54.5082761
11
154.8374943
21
-54.5082761
0
LINE
8
0
10
154.8374943
20
-54.5082761
11
154.8374943
21
-40.5082761
0
LINE
8
0
10
154.8374943
20
-40.5082761
11
140.8374943
21
-40.5082761
0
LINE
8
0
10
140.8374943
20
-40.5082761
11
140.8374943
21
-54.5082761
0
LINE
8
0
10
140.8374943
20
-35.5082761
11
154.8374943
21
-35.5082761
0
LINE
8
0
10
154.8374943
20
-35.5082761
11
154.8374943
21
-21.5082761
0
LINE
8
0
10
154.8374943
20
-21.5082761
11
140.8374943
21
-21.5082761
0
LINE
8
0
10
140.8374943
20
-21.5082761
11
140.8374943
21
-35.5082761
0
LINE
8
0
10
159.8374943
20
-79.8416094
11
173.8374943
21
-79.8416094
0
LINE
8
0
10
173.8374943
20
-79.8416094
11
173.8374943
21
-65.8416094
0
LINE
8
0
10
173.8374943
20
-65.8416094
11
159.8374943
21
-65.8416094
0
LINE
8
0
10
159.8374943
20
-65.8416094
11
159.8374943
21
-79.8416094
0
LINE
8
0
10
159.8374943
20
-60.8416094
11
173.8374943
21
-60.8416094
0
LINE
8
0
10
173.8374943
20
-60.8416094
11
173.8374943
21
-46.8416094
0
LINE
8
0
10
173.8374943
20
-46.8416094
11
159.8374943
21
-46.8416094
0
LINE
8
0
10
159.8374943
20
-46.8416094
11
159.8374943
21
-60.8416094
0
LINE
8
0
10
159.8374942
20
-41.8416094
11
173.8374942
21
-41.8416094
0
LINE
8
0
10
173.8374942
20
-41.8416094
11
173.8374942
21
-27.8416094
0
LINE
8
0
10
173.8374942
20
-27.8416094
11
159.8374942
21
-27.8416094
0
LINE
8
0
10
159.8374942
20
-27.8416094
11
159.8374942
21
-41.8416094
0
LINE
8
0
10
178.8374943
20
-83.0082762
11
192.8374943
21
-83.0082762
0
LINE
8
0
10
192.8374943
20
-83.0082762
11
192.8374943
21
-69.0082762
0
LINE
8
0
10
192.8374943
20
-69.0082762
11
178.8374943
21
-69.0082762
0
LINE
8
0
10
178.8374943
20
-69.0082762
11
178.8374943
21
-83.0082762
0
LINE
8
0
10
178.8374943
20
-64.0082761
11
192.8374943
21
-64.0082761
0
LINE
8
0
10
192.8374943
20
-64.0082761
11
192.8374943
21
-50.0082761
0
LINE
8
0
10
192.8374943
20
-50.0082761
11
178.8374943
21
-50.0082761
0
LINE
8
0
10
178.8374943
20
-50.0082761
11
178.8374943
21
-64.0082761
0
LINE
8
0
10
178.8374943
20
-45.0082761
11
192.8374943
21
-45.0082761
0
LINE
8
0
10
192.8374943
20
-45.0082761
11
192.8374943
21
-31.0082761
0
LINE
8
0
10
192.8374943
20
-31.0082761
11
178.8374943
21
-31.0082761
0
LINE
8
0
10
178.8374943
20
-31.0082761
11
178.8374943
21
-45.0082761
0
LINE
8
0
10
169.3374943
20
-102.0146094
11
183.3374943
21
-102.0146094
0
LINE
8
0
10
183.3374943
20
-102.0146094
11
183.3374943
21
-88.0146094
0
LINE
8
0
10
183.3374943
20
-88.0146094
11
169.3374943
21
-88.0146094
0
LINE
8
0
10
169.3374943
20
-88.0146094
11
169.3374943
21
-102.0146094
0
LINE
8
0
10
206.0151065
20
-102.6804424
11
213.0151065
21
-90.5560868
0
LINE
8
0
10
213.0151065
20
-90.5560868
11
200.8907509
21
-83.5560868
0
LINE
8
0
10
200.8907509
20
-83.5560868
11
193.8907509
21
-95.6804424
0
LINE
8
0
10
193.8907509
20
-95.6804424
11
206.0151065
21
-102.6804424
0
LINE
8
0
10
222.4695892
20
-112.1804424
11
229.4695892
21
-100.0560868
0
LINE
8
0
10
229.4695892
20
-100.0560868
11
217.3452336
21
-93.0560868
0
LINE
8
0
10
217.3452336
20
-93.0560868
11
210.3452336
21
-105.1804424
0
LINE
8
0
10
210.3452336
20
-105.1804424
11
222.4695892
21
-112.1804424
0
LINE
8
0
10
199.6374943
20
-60.8782761
11
221.1774943
21
-60.8782761
0
LINE
8
0
10
199.6374943
20
-24.7082761
11
199.6374943
21
-60.8782761
0
ENDSEC
0
EOF