0
SECTION
2
HEADER
9
$INSUNITS
70
4
0
ENDSEC
0
SECTION
2
TABLES
0
TABLE
2
LTYPE
0
LTYPE
72
65
70
64
2
CONTINUOUS
3
______
73
0
40
0
0
ENDTAB
0
TABLE
2
LAYER
0
ENDTAB
0
ENDSEC
0
SECTION
2
ENTITIES
0
LINE
8
0
10
91.2964685
20
-97.776505
11
84.809869
21
-44.9473917
0
ARC
8
0
10
94.7353306
20
-43.7286984
40
10
50
124.0649879
51
186.9999972
0
LINE
8
0
10
89.1340019
20
-35.4446706
11
124.4615691
21
-11.5575815
0
ARC
8
0
10
130.0628979
20
-19.8416094
40
10
50
90
51
124.0649879
0
LINE
8
0
10
130.0628979
20
-9.8416094
11
166.2296409
21
-9.8416094
0
ARC
8
0
10
166.2296409
20
-19.8416094
40
10
50
72.7184994
51
90
0
LINE
8
0
10
169.2003065
20
-10.2930416
11
196.2492744
21
-18.7082761
0
LINE
8
0
10
196.2492744
20
-18.7082761
11
198.4374943
21
-18.7082761
0
LINE
8
0
10
227.1774943
20
-67.0082761
11
227.1774943
21
-73.5664215
0
LINE
8
0
10
227.1774943
20
-73.5664215
11
241.5411116
21
-82.2106947
0
ARC
8
0
10
236.3847096
20
-90.7787469
40
10
50
329.9999999
51
418.9498192
0
LINE
8
0
10
245.0449636
20
-95.7787469
11
226.8679295
21
-127.2622936
0
ARC
8
0
10
218.2076754
20
-122.2622936
40
10
50
240.1735235
51
329.9999999
0
LINE
8
0
10
213.2339266
20
-130.9376509
11
183.9881634
21
-114.1704943
0
LINE
8
0
10
183.9881634
20
-114.1704943
11
100.3109962
21
-106.5162353
0
ARC
8
0
10
101.22193
20
-96.5578117
40
10
50
186.9999972
51
264.7734875
0
LINE
8
0
10
103.3617195
20
-95.112328
11
117.2573657
21
-93.4061572
0
LINE
8
0
10
117.2573657
20
-93.4061572
11
115.5511949
21
-79.510511
0
LINE
8
0
10
115.5511949
20
-79.510511
11
101.6555487
21
-81.2166818
0
LINE
8
0
10
101.6555487
20
-81.2166818
11
103.3617195
21
-95.112328
0
LINE
8
0
10
101.046202
20
-76.2539511
11
114.9418482
21
-74.5477803
0
LINE
8
0
10
114.9418482
20
-74.5477803
11
113.2356774
21
-60.6521341
0
LINE
8
0
10
113.2356774
20
-60.6521341
11
99.3400312
21
-62.3583049
0
LINE
8
0
10
99.3400312
20
-62.3583049
11
101.046202
21
-76.2539511
0
LINE
8
0
10
98.7306845
20
-57.3955742
11
112.6263307
21
-55.6894034
0
LINE
8
0
10
112.6263307
20
-55.6894034
11
110.9201599
21
-41.7937572
0
LINE
8
0
10
110.9201599
20
-41.7937572
11
97.0245137
21
-43.499928
0
LINE
8
0
10
97.0245137
20
-43.499928
11
98.7306845
21
-57.3955742
0
LINE
8
0
10
121.8374943
20
-79.8416095
11
135.8374943
21
-79.8416095
0
LINE
8
0
10
135.8374943
20
-79.8416095
11
135.8374943
21
-65.8416095
0
LINE
8
0
10
135.8374943
20
-65.8416095
11
121.8374943
21
-65.8416095
0
LINE
8
0
10
121.8374943
20
-65.8416095
11
121.8374943
21
-79.8416095
0
LINE
8
0
10
121.8374942
20
-60.8416095
11
135.8374942
21
-60.8416095
0
LINE
8
0
10
135.8374942
20
-60.8416095
11
135.8374942
21
-46.8416095
0
LINE
8
0
10
135.8374942
20
-46.8416095
11
121.8374942
21
-46.8416095
0
LINE
8
0
10
121.8374942
20
-46.8416095
11
121.8374942
21
-60.8416095
0
LINE
8
0
10
121.8374942
20
-41.8416094
11
135.8374942
21
-41.8416094
0
LINE
8
0
10
135.8374942
20
-41.8416094
11
135.8374942
21
-27.8416094
0
LINE
8
0
10
135.8374942
20
-27.8416094
11
121.8374942
21
-27.8416094
0
LINE
8
0
10
121.8374942
20
-27.8416094
11
121.8374942
21
-41.8416094
0
LINE
8
0
10
140.8374943
20
-73.5082761
11
154.8374943
21
-73.5082761
0
LINE
8
0
10
154.8374943
20
-73.5082761
11
154.8374943
21
-59.5082761
0
LINE
8
0
10
154.8374943
20
-59.5082761
11
140.8374943
21
-59.5082761
0
LINE
8
0
10
140.8374943
20
-59.5082761
11
140.8374943
21
-73.5082761
0
LINE
8
0
10
140.8374943
20
-54.5082761
11
154.8374943
21
-54.5082761
0
LINE
8
0
10
154.8374943
20
-54.5082761
11
154.8374943
21
-40.5082761
0
LINE
8
0
10
154.8374943
20
-40.5082761
11
140.8374943
21
-40.5082761
0
LINE
8
0
10
140.8374943
20
-40.5082761
11
140.8374943
21
-54.5082761
0
LINE
8
0
10
140.8374943
20
-35.5082761
11
154.8374943
21
-35.5082761
0
LINE
8
0
10
154.8374943
20
-35.5082761
11
154.8374943
21
-21.5082761
0
LINE
8
0
10
154.8374943
20
-21.5082761
11
140.8374943
21
-21.5082761
0
LINE
8
0
10
140.8374943
20
-21.5082761
11
140.8374943
21
-35.5082761
0
LINE
8
0
10
159.8374943
20
-79.8416094
11
173.8374943
21
-79.8416094
0
LINE
8
0
10
173.8374943
20
-79.8416094
11
173.8374943
21
-65.8416094
0
LINE
8
0
10
173.8374943
20
-65.8416094
11
159.8374943
21
-65.8416094
0
LINE
8
0
10
159.8374943
20
-65.8416094
11
159.8374943
21
-79.8416094
0
LINE
8
0
10
159.8374943
20
-60.8416094
11
173.8374943
21
-60.8416094
0
LINE
8
0
10
173.8374943
20
-60.8416094
11
173.8374943
21
-46.8416094
0
LINE
8
0
10
173.8374943
20
-46.8416094
11
159.8374943
21
-46.8416094
0
LINE
8
0
10
159.8374943
20
-46.8416094
11
159.8374943
21
-60.8416094
0
LINE
8
0
10
159.8374942
20
-41.8416094
11
173.8374942
21
-41.8416094
0
LINE
8
0
10
173.8374942
20
-41.8416094
11
173.8374942
21
-27.8416094
0
LINE
8
0
10
173.8374942
20
-27.8416094
11
159.8374942
21
-27.8416094
0
LINE
8
0
10
159.8374942
20
-27.8416094
11
159.8374942
21
-41.8416094
0
LINE
8
0
10
178.8374943
20
-83.0082762
11
192.8374943
21
-83.0082762
0
LINE
8
0
10
192.8374943
20
-83.0082762
11
192.8374943
21
-69.0082762
0
LINE
8
0
10
192.8374943
20
-69.0082762
11
178.8374943
21
-69.0082762
0
LINE
8
0
10
178.8374943
20
-69.0082762
11
178.8374943
21
-83.0082762
0
LINE
8
0
10
178.8374943
20
-64.0082761
11
192.8374943
21
-64.0082761
0
LINE
8
0
10
192.8374943
20
-64.0082761
11
192.8374943
21
-50.0082761
0
LINE
8
0
10
192.8374943
20
-50.0082761
11
178.8374943
21
-50.0082761
0
LINE
8
0
10
178.8374943
20
-50.0082761
11
178.8374943
21
-64.0082761
0
LINE
8
0
10
178.8374943
20
-45.0082761
11
192.8374943
21
-45.0082761
0
LINE
8
0
10
192.8374943
20
-45.0082761
11
192.8374943
21
-31.0082761
0
LINE
8
0
10
192.8374943
20
-31.0082761
11
178.8374943
21
-31.0082761
0
LINE
8
0
10
178.8374943
20
-31.0082761
11
178.8374943
21
-45.0082761
0
LINE
8
0
10
169.3374943
20
-102.0146094
11
183.3374943
21
-102.0146094
0
LINE
8
0
10
183.3374943
20
-102.0146094
11
183.3374943
21
-88.0146094
0
LINE
8
0
10
183.3374943
20
-88.0146094
11
169.3374943
21
-88.0146094
0
LINE
8
0
10
169.3374943
20
-88.0146094
11
169.3374943
21
-102.0146094
0
LINE
8
0
10
206.0151065
20
-102.6804424
11
213.0151065
21
-90.5560868
0
LINE
8
0
10
213.0151065
20
-90.5560868
11
200.8907509
21
-83.5560868
0
LINE
8
0
10
200.8907509
20
-83.5560868
11
193.8907509
21
-95.6804424
0
LINE
8
0
10
193.8907509
20
-95.6804424
11
206.0151065
21
-102.6804424
0
LINE
8
0
10
222.4695892
20
-112.1804424
11
229.4695892
21
-100.0560868
0
LINE
8
0
10
229.4695892
20
-100.0560868
11
217.3452336
21
-93.0560868
0
LINE
8
0
10
217.3452336
20
-93.0560868
11
210.3452336
21
-105.1804424
0
LINE
8
0
10
210.3452336
20
-105.1804424
11
222.4695892
21
-112.1804424
0
LINE
8
0
10
198.4374943
20
-67.0082761
11
209.2874943
21
-67.0082761
0
LINE
8
0
10
221.2874943
20
-67.0082761
11
227.1774943
21
-67.0082761
0
LINE
8
0
10
198.4374943
20
-18.7082761
11
198.4374943
21
-67.0082761
0
LINE
8
0
10
134.3374943
20
-100.3582761
11
161.3374943
21
-100.3582761
0
LINE
8
0
10
161.3374943
20
-100.3582761
11
161.3374943
21
-82.0916094
0
LINE
8
0
10
157.5874943
20
-76.3582761
11
138.0874943
21
-76.3582761
0
LINE
8
0
10
134.3374943
20
-82.0916095
11
134.3374943
21
-100.3582761
0
LINE
8
0
10
134.3374943
20
-82.0916095
11
138.0874943
21
-82.0916095
0
LINE
8
0
10
138.0874943
20
-82.0916095
11
138.0874943
21
-76.3582761
0
LINE
8
0
10
157.5874943
20
-82.0916094
11
161.3374943
21
-82.0916094
0
LINE
8
0
10
157.5874943
20
-76.3582761
11
157.5874943
21
-82.0916094
0
CIRCLE
8
0
10
88.4883412
20
-41.2635562
40
1.2
0
CIRCLE
8
0
10
96.9335368
20
-102.2489214
40
1.2
0
CIRCLE
8
0
10
147.8374943
20
-107.7382761
40
1.2
0
CIRCLE
8
0
10
147.8374943
20
-13.3082761
40
1.2
0
CIRCLE
8
0
10
193.4374943
20
-21.2882761
40
1.2
0
CIRCLE
8
0
10
184.8874943
20
-111.3546094
40
1.2
0
CIRCLE
8
0
10
220.0255493
20
-129.0136438
40
1.2
0
CIRCLE
8
0
10
242.8255493
20
-89.5228854
40
1.2
0
CIRCLE
8
0
10
224.7206252
20
-74.9015337
40
1.2
0
LINE
8
0
10
209.2874943
20
-74.0082762
11
221.2874943
21
-74.0082762
0
LINE
8
0
10
221.2874943
20
-74.0082762
11
221.2874943
21
-67.0082761
0
LINE
8
0
10
209.2874943
20
-67.0082761
11
209.2874943
21
-74.0082762
0
ENDSEC
0
EOF