0
SECTION
2
HEADER
9
$INSUNITS
70
4
0
ENDSEC
0
SECTION
2
TABLES
0
TABLE
2
LTYPE
0
LTYPE
72
65
70
64
2
CONTINUOUS
3
______
73
0
40
0
0
ENDTAB
0
TABLE
2
LAYER
0
ENDTAB
0
ENDSEC
0
SECTION
2
ENTITIES
0
LINE
8
0
10
91.2964685
20
-97.776505
11
84.809869
21
-44.9473917
0
ARC
8
0
10
94.7353306
20
-43.7286984
40
10
50
124.0649879
51
186.9999972
0
LINE
8
0
10
89.1340019
20
-35.4446706
11
124.4615691
21
-11.5575815
0
ARC
8
0
10
130.0628979
20
-19.8416094
40
10
50
90
51
124.0649879
0
LINE
8
0
10
130.0628979
20
-9.8416094
11
166.2296409
21
-9.8416094
0
ARC
8
0
10
166.2296409
20
-19.8416094
40
10
50
72.7184994
51
90
0
LINE
8
0
10
169.2003065
20
-10.2930416
11
196.2492744
21
-18.7082761
0
LINE
8
0
10
196.2492744
20
-18.7082761
11
217.1774943
21
-18.7082761
0
ARC
8
0
10
217.1774943
20
-28.7082761
40
10
50
0
51
90
0
LINE
8
0
10
227.1774943
20
-28.7082761
11
227.1774943
21
-73.5664215
0
LINE
8
0
10
227.1774943
20
-73.5664215
11
241.5411116
21
-82.2106947
0
ARC
8
0
10
236.3847096
20
-90.7787469
40
10
50
329.9999999
51
418.9498192
0
LINE
8
0
10
245.0449636
20
-95.7787469
11
226.8679295
21
-127.2622936
0
ARC
8
0
10
218.2076754
20
-122.2622936
40
10
50
240.1735235
51
329.9999999
0
LINE
8
0
10
213.2339266
20
-130.9376509
11
183.9881634
21
-114.1704943
0
LINE
8
0
10
183.9881634
20
-114.1704943
11
100.3109962
21
-106.5162353
0
ARC
8
0
10
101.22193
20
-96.5578117
40
10
50
186.9999972
51
264.7734875
0
LINE
8
0
10
97.2517454
20
-97.0452889
11
90.765146
21
-44.2161756
0
LINE
8
0
10
92.494799
20
-40.4150873
11
127.8223663
21
-16.5279983
0
LINE
8
0
10
130.0628979
20
-15.8416094
11
166.2296409
21
-15.8416094
0
LINE
8
0
10
167.4179072
20
-16.0221823
11
194.7570813
21
-24.5277032
0
LINE
8
0
10
195.9453476
20
-24.7082761
11
217.1774943
21
-24.7082761
0
LINE
8
0
10
221.1774943
20
-28.7082761
11
221.1774943
21
-74.6970397
0
LINE
8
0
10
223.1149335
20
-78.1242606
11
238.4472704
21
-87.351526
0
LINE
8
0
10
239.8488112
20
-92.7787469
11
221.671777
21
-124.2622936
0
LINE
8
0
10
216.2181758
20
-125.7324365
11
186.5941067
21
-108.7483898
0
LINE
8
0
10
184.9689807
20
-108.2351633
11
100.8575564
21
-100.5411811
0
ARC
8
0
10
94.7353306
20
-43.7286984
40
4
50
124.0649879
51
186.9999972
0
ARC
8
0
10
130.0628979
20
-19.8416094
40
4
50
90
51
124.0649879
0
ARC
8
0
10
166.2296409
20
-19.8416094
40
4
50
72.7184994
51
90
0
ARC
8
0
10
195.9453476
20
-20.7082761
40
4
50
252.7184994
51
270
0
ARC
8
0
10
217.1774943
20
-28.7082761
40
4
50
0
51
90
0
ARC
8
0
10
225.1774943
20
-74.6970397
40
4
50
180
51
238.959743
0
ARC
8
0
10
236.3847096
20
-90.7787469
40
4
50
329.9999999
51
58.959743
0
ARC
8
0
10
218.2076754
20
-122.2622936
40
4
50
240.1735235
51
329.9999999
0
ARC
8
0
10
184.6046071
20
-112.2185327
40
4
50
60.1735235
51
84.7734875
0
ARC
8
0
10
101.22193
20
-96.5578117
40
4
50
186.9999972
51
264.7734875
0
LINE
8
0
10
101.4026967
20
-97.6197628
11
119.7648005
21
-95.36518
0
LINE
8
0
10
119.7648005
20
-95.36518
11
117.5102177
21
-77.0030762
0
LINE
8
0
10
117.5102177
20
-77.0030762
11
99.1481139
21
-79.257659
0
LINE
8
0
10
99.1481139
20
-79.257659
11
101.4026967
21
-97.6197628
0
LINE
8
0
10
99.0871792
20
-78.7613859
11
117.449283
21
-76.5068031
0
LINE
8
0
10
117.449283
20
-76.5068031
11
115.1947002
21
-58.1446993
0
LINE
8
0
10
115.1947002
20
-58.1446993
11
96.8325964
21
-60.3992821
0
LINE
8
0
10
96.8325964
20
-60.3992821
11
99.0871792
21
-78.7613859
0
LINE
8
0
10
96.7716617
20
-59.903009
11
115.1337655
21
-57.6484262
0
LINE
8
0
10
115.1337655
20
-57.6484262
11
112.8791827
21
-39.2863224
0
LINE
8
0
10
112.8791827
20
-39.2863224
11
94.5170789
21
-41.5409052
0
LINE
8
0
10
94.5170789
20
-41.5409052
11
96.7716617
21
-59.903009
0
LINE
8
0
10
119.5874943
20
-82.0916095
11
138.0874943
21
-82.0916095
0
LINE
8
0
10
138.0874943
20
-82.0916095
11
138.0874943
21
-63.5916095
0
LINE
8
0
10
138.0874943
20
-63.5916095
11
119.5874943
21
-63.5916095
0
LINE
8
0
10
119.5874943
20
-63.5916095
11
119.5874943
21
-82.0916095
0
LINE
8
0
10
119.5874942
20
-63.0916095
11
138.0874942
21
-63.0916095
0
LINE
8
0
10
138.0874942
20
-63.0916095
11
138.0874942
21
-44.5916095
0
LINE
8
0
10
138.0874942
20
-44.5916095
11
119.5874942
21
-44.5916095
0
LINE
8
0
10
119.5874942
20
-44.5916095
11
119.5874942
21
-63.0916095
0
LINE
8
0
10
119.5874942
20
-44.0916094
11
138.0874942
21
-44.0916094
0
LINE
8
0
10
138.0874942
20
-44.0916094
11
138.0874942
21
-25.5916094
0
LINE
8
0
10
138.0874942
20
-25.5916094
11
119.5874942
21
-25.5916094
0
LINE
8
0
10
119.5874942
20
-25.5916094
11
119.5874942
21
-44.0916094
0
LINE
8
0
10
138.5874943
20
-75.7582761
11
157.0874943
21
-75.7582761
0
LINE
8
0
10
157.0874943
20
-75.7582761
11
157.0874943
21
-57.2582761
0
LINE
8
0
10
157.0874943
20
-57.2582761
11
138.5874943
21
-57.2582761
0
LINE
8
0
10
138.5874943
20
-57.2582761
11
138.5874943
21
-75.7582761
0
LINE
8
0
10
138.5874943
20
-56.7582761
11
157.0874943
21
-56.7582761
0
LINE
8
0
10
157.0874943
20
-56.7582761
11
157.0874943
21
-38.2582761
0
LINE
8
0
10
157.0874943
20
-38.2582761
11
138.5874943
21
-38.2582761
0
LINE
8
0
10
138.5874943
20
-38.2582761
11
138.5874943
21
-56.7582761
0
LINE
8
0
10
138.5874943
20
-37.7582761
11
157.0874943
21
-37.7582761
0
LINE
8
0
10
157.0874943
20
-37.7582761
11
157.0874943
21
-19.2582761
0
LINE
8
0
10
157.0874943
20
-19.2582761
11
138.5874943
21
-19.2582761
0
LINE
8
0
10
138.5874943
20
-19.2582761
11
138.5874943
21
-37.7582761
0
LINE
8
0
10
157.5874943
20
-82.0916094
11
176.0874943
21
-82.0916094
0
LINE
8
0
10
176.0874943
20
-82.0916094
11
176.0874943
21
-63.5916094
0
LINE
8
0
10
176.0874943
20
-63.5916094
11
157.5874943
21
-63.5916094
0
LINE
8
0
10
157.5874943
20
-63.5916094
11
157.5874943
21
-82.0916094
0
LINE
8
0
10
157.5874943
20
-63.0916094
11
176.0874943
21
-63.0916094
0
LINE
8
0
10
176.0874943
20
-63.0916094
11
176.0874943
21
-44.5916094
0
LINE
8
0
10
176.0874943
20
-44.5916094
11
157.5874943
21
-44.5916094
0
LINE
8
0
10
157.5874943
20
-44.5916094
11
157.5874943
21
-63.0916094
0
LINE
8
0
10
157.5874942
20
-44.0916094
11
176.0874942
21
-44.0916094
0
LINE
8
0
10
176.0874942
20
-44.0916094
11
176.0874942
21
-25.5916094
0
LINE
8
0
10
176.0874942
20
-25.5916094
11
157.5874942
21
-25.5916094
0
LINE
8
0
10
157.5874942
20
-25.5916094
11
157.5874942
21
-44.0916094
0
LINE
8
0
10
176.5874943
20
-85.2582762
11
195.0874943
21
-85.2582762
0
LINE
8
0
10
195.0874943
20
-85.2582762
11
195.0874943
21
-66.7582762
0
LINE
8
0
10
195.0874943
20
-66.7582762
11
176.5874943
21
-66.7582762
0
LINE
8
0
10
176.5874943
20
-66.7582762
11
176.5874943
21
-85.2582762
0
LINE
8
0
10
176.5874943
20
-66.2582761
11
195.0874943
21
-66.2582761
0
LINE
8
0
10
195.0874943
20
-66.2582761
11
195.0874943
21
-47.7582761
0
LINE
8
0
10
195.0874943
20
-47.7582761
11
176.5874943
21
-47.7582761
0
LINE
8
0
10
176.5874943
20
-47.7582761
11
176.5874943
21
-66.2582761
0
LINE
8
0
10
176.5874943
20
-47.2582761
11
195.0874943
21
-47.2582761
0
LINE
8
0
10
195.0874943
20
-47.2582761
11
195.0874943
21
-28.7582761
0
LINE
8
0
10
195.0874943
20
-28.7582761
11
176.5874943
21
-28.7582761
0
LINE
8
0
10
176.5874943
20
-28.7582761
11
176.5874943
21
-47.2582761
0
LINE
8
0
10
167.0874943
20
-104.2646094
11
185.5874943
21
-104.2646094
0
LINE
8
0
10
185.5874943
20
-104.2646094
11
185.5874943
21
-85.7646094
0
LINE
8
0
10
185.5874943
20
-85.7646094
11
167.0874943
21
-85.7646094
0
LINE
8
0
10
167.0874943
20
-85.7646094
11
167.0874943
21
-104.2646094
0
LINE
8
0
10
202.0886637
20
-113.9812409
11
220.8386637
21
-81.5052883
0
LINE
8
0
10
220.8386637
20
-81.5052883
11
204.8171937
21
-72.2552883
0
LINE
8
0
10
204.8171937
20
-72.2552883
11
186.0671937
21
-104.7312409
0
LINE
8
0
10
186.0671937
20
-104.7312409
11
202.0886637
21
-113.9812409
0
LINE
8
0
10
218.5431464
20
-123.4812409
11
237.2931464
21
-91.0052883
0
LINE
8
0
10
237.2931464
20
-91.0052883
11
221.2716764
21
-81.7552883
0
LINE
8
0
10
221.2716764
20
-81.7552883
11
202.5216764
21
-114.2312409
0
LINE
8
0
10
202.5216764
20
-114.2312409
11
218.5431464
21
-123.4812409
0
CIRCLE
8
0
10
88.4883412
20
-41.2635562
40
1.2
0
CIRCLE
8
0
10
96.9335368
20
-102.2489214
40
1.2
0
CIRCLE
8
0
10
147.8374943
20
-107.7382761
40
1.2
0
CIRCLE
8
0
10
147.8374943
20
-13.3082761
40
1.2
0
CIRCLE
8
0
10
193.4374943
20
-21.2882761
40
1.2
0
CIRCLE
8
0
10
184.8874943
20
-111.3546094
40
1.2
0
CIRCLE
8
0
10
220.0255493
20
-129.0136438
40
1.2
0
CIRCLE
8
0
10
242.8255493
20
-89.5228854
40
1.2
0
ENDSEC
0
EOF