0
SECTION
2
HEADER
9
$INSUNITS
70
4
0
ENDSEC
0
SECTION
2
TABLES
0
TABLE
2
LTYPE
0
LTYPE
72
65
70
64
2
CONTINUOUS
3
______
73
0
40
0
0
ENDTAB
0
TABLE
2
LAYER
0
ENDTAB
0
ENDSEC
0
SECTION
2
ENTITIES
0
LINE
8
0
10
99.4436739
20
-100.1271977
11
122.2722354
21
-97.3242028
0
LINE
8
0
10
122.2722354
20
-97.3242028
11
120.6781734
21
-84.3416095
0
LINE
8
0
10
92.009644
20
-39.5818824
11
99.4436739
21
-100.1271977
0
LINE
8
0
10
114.8382055
20
-36.7788875
11
117.3374942
21
-57.1339606
0
LINE
8
0
10
114.8382055
20
-36.7788875
11
92.009644
21
-39.5818824
0
LINE
8
0
10
120.6781734
20
-84.3416095
11
140.3374943
21
-84.3416095
0
LINE
8
0
10
140.3374943
20
-84.3416095
11
140.3374943
21
-78.0082761
0
LINE
8
0
10
117.3374942
20
-57.1339606
11
117.3374942
21
-23.3416094
0
LINE
8
0
10
136.3374943
20
-23.3416094
11
117.3374942
21
-23.3416094
0
LINE
8
0
10
140.3374943
20
-78.0082761
11
155.3374943
21
-78.0082761
0
LINE
8
0
10
159.3374943
20
-23.3416094
11
159.3374943
21
-17.0082761
0
LINE
8
0
10
159.3374943
20
-17.0082761
11
136.3374943
21
-17.0082761
0
LINE
8
0
10
136.3374943
20
-17.0082761
11
136.3374943
21
-23.3416094
0
LINE
8
0
10
155.3374943
20
-84.3416094
11
174.3374943
21
-84.3416094
0
LINE
8
0
10
155.3374943
20
-78.0082761
11
155.3374943
21
-84.3416094
0
LINE
8
0
10
178.3374943
20
-26.5082761
11
178.3374942
21
-23.3416094
0
LINE
8
0
10
178.3374942
20
-23.3416094
11
159.3374943
21
-23.3416094
0
LINE
8
0
10
187.8374943
20
-87.5082762
11
192.2390479
21
-87.5082762
0
LINE
8
0
10
197.3374943
20
-78.8354607
11
197.3374943
21
-26.5082761
0
LINE
8
0
10
174.3374943
20
-84.3416094
11
174.3374943
21
-86.0416094
0
LINE
8
0
10
197.3374943
20
-26.5082761
11
178.3374943
21
-26.5082761
0
LINE
8
0
10
164.8374943
20
-109.0416094
11
187.8374943
21
-109.0416094
0
LINE
8
0
10
187.8374943
20
-109.0416094
11
187.8374943
21
-99.9087454
0
LINE
8
0
10
187.8374943
20
-95.1319906
11
187.8374943
21
-87.5082762
0
LINE
8
0
10
174.3374943
20
-86.0416094
11
164.8374943
21
-86.0416094
0
LINE
8
0
10
164.8374943
20
-86.0416094
11
164.8374943
21
-109.0416094
0
LINE
8
0
10
197.3374943
20
-78.8354607
11
233.6421656
21
-99.7959725
0
LINE
8
0
10
192.2390479
20
-87.5082762
11
187.8374943
21
-95.1319906
0
LINE
8
0
10
187.8374943
20
-99.9087454
11
222.1421656
21
-119.7145567
0
LINE
8
0
10
222.1421656
20
-119.7145567
11
233.6421656
21
-99.7959725
0
ENDSEC
0
EOF