0
SECTION
2
HEADER
9
$INSUNITS
70
4
0
ENDSEC
0
SECTION
2
TABLES
0
TABLE
2
LTYPE
0
LTYPE
72
65
70
64
2
CONTINUOUS
3
______
73
0
40
0
0
ENDTAB
0
TABLE
2
LAYER
0
ENDTAB
0
ENDSEC
0
SECTION
2
ENTITIES
0
LINE
8
0
10
101.1850275
20
-97.8983667
11
120.0434044
21
-95.5828492
0
LINE
8
0
10
113.0968519
20
-39.0077185
11
120.0434044
21
-95.5828492
0
LINE
8
0
10
94.238475
20
-41.323236
11
101.1850275
21
-97.8983667
0
LINE
8
0
10
113.0968519
20
-39.0077185
11
94.238475
21
-41.323236
0
LINE
8
0
10
119.3374943
20
-82.3416095
11
138.3374943
21
-82.3416095
0
LINE
8
0
10
138.3374943
20
-82.3416095
11
138.3374943
21
-76.0082761
0
LINE
8
0
10
119.3374943
20
-63.3416095
11
119.3374943
21
-82.3416095
0
LINE
8
0
10
138.3374942
20
-63.3416095
11
138.3374942
21
-44.3416095
0
LINE
8
0
10
119.3374942
20
-44.3416095
11
138.3374942
21
-44.3416095
0
LINE
8
0
10
119.3374942
20
-44.3416095
11
119.3374942
21
-63.3416095
0
LINE
8
0
10
138.3374942
20
-44.3416094
11
138.3374942
21
-25.3416094
0
LINE
8
0
10
138.3374942
20
-25.3416094
11
119.3374942
21
-25.3416094
0
LINE
8
0
10
119.3374942
20
-25.3416094
11
119.3374942
21
-44.3416094
0
LINE
8
0
10
138.3374943
20
-76.0082761
11
157.3374943
21
-76.0082761
0
LINE
8
0
10
138.3374943
20
-63.3416095
11
138.3374943
21
-19.0082761
0
LINE
8
0
10
157.3374942
20
-25.3416094
11
157.3374943
21
-19.0082761
0
LINE
8
0
10
157.3374943
20
-19.0082761
11
138.3374943
21
-19.0082761
0
LINE
8
0
10
157.3374943
20
-82.3416094
11
176.3374943
21
-82.3416094
0
LINE
8
0
10
157.3374943
20
-76.0082761
11
157.3374943
21
-82.3416094
0
LINE
8
0
10
176.3374942
20
-44.3416094
11
176.3374942
21
-25.3416094
0
LINE
8
0
10
176.3374942
20
-25.3416094
11
157.3374942
21
-25.3416094
0
LINE
8
0
10
176.3374943
20
-85.5082762
11
195.3374943
21
-85.5082762
0
LINE
8
0
10
195.3374943
20
-85.5082762
11
195.3374943
21
-66.5082762
0
LINE
8
0
10
176.3374943
20
-66.5082762
11
195.3374943
21
-66.5082762
0
LINE
8
0
10
176.3374943
20
-82.3416094
11
176.3374943
21
-85.5082762
0
LINE
8
0
10
195.3374943
20
-66.5082761
11
195.3374943
21
-28.5082761
0
LINE
8
0
10
195.3374943
20
-28.5082761
11
176.3374943
21
-28.5082761
0
LINE
8
0
10
176.3374943
20
-28.5082761
11
176.3374943
21
-44.3416094
0
LINE
8
0
10
166.8374943
20
-104.5146094
11
185.8374943
21
-104.5146094
0
LINE
8
0
10
185.8374943
20
-104.5146094
11
185.8374943
21
-85.5146094
0
LINE
8
0
10
185.8374943
20
-85.5146094
11
166.8374943
21
-85.5146094
0
LINE
8
0
10
166.8374943
20
-85.5146094
11
166.8374943
21
-104.5146094
0
LINE
8
0
10
216.43017
20
-89.6410233
11
199.9756874
21
-80.1410233
0
LINE
8
0
10
199.9756874
20
-80.1410233
11
190.4756874
21
-96.5955059
0
LINE
8
0
10
190.4756874
20
-96.5955059
11
206.93017
21
-106.0955059
0
LINE
8
0
10
223.3846527
20
-115.5955059
11
232.8846527
21
-99.1410233
0
LINE
8
0
10
232.8846527
20
-99.1410233
11
216.4301701
21
-89.6410233
0
LINE
8
0
10
206.9301701
20
-106.0955059
11
223.3846527
21
-115.5955059
0
ENDSEC
0
EOF